<svg version="1.1" xmlns="http://www.w3.org/2000/svg" width="300" height="300"><defs><clipPath id="kwlAgFmOtNTg"><path fill="none" stroke="none" d="M 0.5 0.5 L 300.5 0.5 L 300.5 300.5 L 0.5 300.5 L 0.5 0.5"/></clipPath><clipPath id="cntLdQyCkGXd"><path fill="none" stroke="none" d="M 0.5 0.5 L 300.5 0.5 L 300.5 300.5 L 0.5 300.5 L 0.5 0.5"/></clipPath><clipPath id="TSXZseJuhHzf"><path fill="none" stroke="none" d="M 0.5 0.5 L 300.5 0.5 L 300.5 300.5 L 0.5 300.5 L 0.5 0.5"/></clipPath><clipPath id="DyyOrhOOngVI"><path fill="none" stroke="none" d="M 0.5 0.5 L 300.5 0.5 L 300.5 300.5 L 0.5 300.5 L 0.5 0.5"/></clipPath></defs><path fill="none" stroke="rgb(229,229,229)" paint-order="fill" d="M 0.5 0.5 L 299.5 0.5 L 299.5 299.5 L 0.5 299.5 L 0.5 0.5" stroke-opacity="1" stroke-linejoin="bevel" stroke-miterlimit="10" stroke-dasharray=""/><path fill="rgb(202,178,214)" stroke="rgb(0,0,0)" paint-order="fill" d="M 109.59091186523438 48.227272033691406 L 123.22727584838867 48.227272033691406 L 123.22727584838867 252.7727279663086 L 109.59091186523438 252.7727279663086 L 109.59091186523438 48.227272033691406" fill-opacity="1" clip-path="url(#kwlAgFmOtNTg)" stroke-opacity="1" stroke-linejoin="bevel" stroke-miterlimit="10" stroke-dasharray=""/><path fill="rgb(202,178,214)" stroke="rgb(0,0,0)" paint-order="fill" d="M 177.77272033691406 48.227272033691406 L 191.40908432006836 48.227272033691406 L 191.40908432006836 252.7727279663086 L 177.77272033691406 252.7727279663086 L 177.77272033691406 48.227272033691406" fill-opacity="1" clip-path="url(#kwlAgFmOtNTg)" stroke-opacity="1" stroke-linejoin="bevel" stroke-miterlimit="10" stroke-dasharray=""/><path fill="rgb(202,178,214)" stroke="rgb(0,0,0)" paint-order="fill" d="M 48.227272033691406 109.59091186523438 L 252.7727279663086 109.59091186523438 L 252.7727279663086 123.22727584838867 L 48.227272033691406 123.22727584838867 L 48.227272033691406 109.59091186523438" fill-opacity="1" clip-path="url(#kwlAgFmOtNTg)" stroke-opacity="1" stroke-linejoin="bevel" stroke-miterlimit="10" stroke-dasharray=""/><path fill="rgb(202,178,214)" stroke="rgb(0,0,0)" paint-order="fill" d="M 48.227272033691406 177.77272033691406 L 252.7727279663086 177.77272033691406 L 252.7727279663086 191.40908432006836 L 48.227272033691406 191.40908432006836 L 48.227272033691406 177.77272033691406" fill-opacity="1" clip-path="url(#kwlAgFmOtNTg)" stroke-opacity="1" stroke-linejoin="bevel" stroke-miterlimit="10" stroke-dasharray=""/><g clip-path="url(#cntLdQyCkGXd)"><text fill="rgb(68,68,68)" stroke="none" font-family="helvetica" font-size="50pt" font-style="normal" font-weight="normal" text-decoration="normal" x="47.727272727272734" y="245.09090909090907" text-anchor="start" dominant-baseline="alphabetic" transform="matrix(1, 0, 0, 1, 0.5, 0.5)" fill-opacity="1">X</text></g><g clip-path="url(#TSXZseJuhHzf)"><text fill="rgb(68,68,68)" stroke="none" font-family="helvetica" font-size="50pt" font-style="normal" font-weight="normal" text-decoration="normal" x="122.72727272727273" y="170.09090909090907" text-anchor="start" dominant-baseline="alphabetic" transform="matrix(1, 0, 0, 1, 0.5, 0.5)" fill-opacity="1">O</text></g><g clip-path="url(#DyyOrhOOngVI)"><text fill="rgb(68,68,68)" stroke="none" font-family="helvetica" font-size="50pt" font-style="normal" font-weight="normal" text-decoration="normal" x="47.727272727272734" y="101.9090909090909" text-anchor="start" dominant-baseline="alphabetic" transform="matrix(1, 0, 0, 1, 0.5, 0.5)" fill-opacity="1">X</text></g></svg>