<svg version="1.1" xmlns="http://www.w3.org/2000/svg" width="300" height="300"><defs><clipPath id="lQiWUcivbyCG"><path fill="none" stroke="none" d="M 0.5 0.5 L 300.5 0.5 L 300.5 300.5 L 0.5 300.5 L 0.5 0.5"/></clipPath><clipPath id="OoROzEUocweX"><path fill="none" stroke="none" d="M 0.5 0.5 L 300.5 0.5 L 300.5 300.5 L 0.5 300.5 L 0.5 0.5"/></clipPath><clipPath id="RuTxvgiWnOTJ"><path fill="none" stroke="none" d="M 0.5 0.5 L 300.5 0.5 L 300.5 300.5 L 0.5 300.5 L 0.5 0.5"/></clipPath><clipPath id="OXCAEbHlUgRB"><path fill="none" stroke="none" d="M 0.5 0.5 L 300.5 0.5 L 300.5 300.5 L 0.5 300.5 L 0.5 0.5"/></clipPath><clipPath id="HXDFcUmuFILZ"><path fill="none" stroke="none" d="M 0.5 0.5 L 300.5 0.5 L 300.5 300.5 L 0.5 300.5 L 0.5 0.5"/></clipPath><clipPath id="pQeusThMIBlu"><path fill="none" stroke="none" d="M 0.5 0.5 L 300.5 0.5 L 300.5 300.5 L 0.5 300.5 L 0.5 0.5"/></clipPath><clipPath id="MQrTTJdOHAOR"><path fill="none" stroke="none" d="M 0.5 0.5 L 300.5 0.5 L 300.5 300.5 L 0.5 300.5 L 0.5 0.5"/></clipPath><clipPath id="BuCLMaVhkCeT"><path fill="none" stroke="none" d="M 0.5 0.5 L 300.5 0.5 L 300.5 300.5 L 0.5 300.5 L 0.5 0.5"/></clipPath><clipPath id="ZIpEuTKtErQf"><path fill="none" stroke="none" d="M 0.5 0.5 L 300.5 0.5 L 300.5 300.5 L 0.5 300.5 L 0.5 0.5"/></clipPath><clipPath id="gSxuDsAmJePT"><path fill="none" stroke="none" d="M 0.5 0.5 L 300.5 0.5 L 300.5 300.5 L 0.5 300.5 L 0.5 0.5"/></clipPath><clipPath id="ZIialBloLGrA"><path fill="none" stroke="none" d="M 0.5 0.5 L 300.5 0.5 L 300.5 300.5 L 0.5 300.5 L 0.5 0.5"/></clipPath><clipPath id="RcGBnWSraoaG"><path fill="none" stroke="none" d="M 0.5 0.5 L 300.5 0.5 L 300.5 300.5 L 0.5 300.5 L 0.5 0.5"/></clipPath></defs><path fill="rgb(158,146,138)" stroke="none" paint-order="stroke" d="M 48.227272033691406 184.59091186523438 L 116.40908813476562 184.59091186523438 L 116.40908813476562 252.7727279663086 L 48.227272033691406 252.7727279663086 L 48.227272033691406 184.59091186523438" fill-opacity="1" clip-path="url(#OoROzEUocweX)"/><path fill="rgb(158,146,138)" stroke="none" paint-order="stroke" d="M 116.40908813476562 184.59091186523438 L 184.59090423583984 184.59091186523438 L 184.59090423583984 252.7727279663086 L 116.40908813476562 252.7727279663086 L 116.40908813476562 184.59091186523438" fill-opacity="1" clip-path="url(#OoROzEUocweX)"/><path fill="rgb(158,146,138)" stroke="none" paint-order="stroke" d="M 184.59091186523438 184.59091186523438 L 252.7727279663086 184.59091186523438 L 252.7727279663086 252.7727279663086 L 184.59091186523438 252.7727279663086 L 184.59091186523438 184.59091186523438" fill-opacity="1" clip-path="url(#OoROzEUocweX)"/><path fill="rgb(72,240,0)" stroke="none" paint-order="stroke" d="M 184.59091186523438 184.59091186523438 L 252.7727279663086 184.59091186523438 L 252.7727279663086 252.7727279663086 L 184.59091186523438 252.7727279663086 L 184.59091186523438 184.59091186523438" fill-opacity="1" clip-path="url(#RuTxvgiWnOTJ)"/><path fill="rgb(158,146,138)" stroke="none" paint-order="stroke" d="M 205.0454559326172 215.27272033691406 L 232.31818389892578 215.27272033691406 L 232.31818389892578 222.0909023284912 L 205.0454559326172 222.0909023284912 L 205.0454559326172 215.27272033691406" fill-opacity="1" clip-path="url(#OXCAEbHlUgRB)"/><path fill="rgb(17,90,178)" stroke="none" paint-order="stroke" d="M 206.18182373046875 215.67142243225314 L 231.18182373046875 215.67142243225314 L 218.68182373046875 194.02078733764216 Z" fill-opacity="1" clip-path="url(#HXDFcUmuFILZ)"/><path fill="rgb(0,0,0)" stroke="rgb(0,0,0)" paint-order="fill" d="M 109.59091186523438 48.227272033691406 L 123.22727584838867 48.227272033691406 L 123.22727584838867 252.7727279663086 L 109.59091186523438 252.7727279663086 L 109.59091186523438 48.227272033691406" fill-opacity="1" clip-path="url(#pQeusThMIBlu)" stroke-opacity="1" stroke-linejoin="bevel" stroke-miterlimit="10" stroke-dasharray=""/><path fill="rgb(0,0,0)" stroke="rgb(0,0,0)" paint-order="fill" d="M 177.77272033691406 48.227272033691406 L 191.40908432006836 48.227272033691406 L 191.40908432006836 252.7727279663086 L 177.77272033691406 252.7727279663086 L 177.77272033691406 48.227272033691406" fill-opacity="1" clip-path="url(#pQeusThMIBlu)" stroke-opacity="1" stroke-linejoin="bevel" stroke-miterlimit="10" stroke-dasharray=""/><path fill="rgb(0,0,0)" stroke="rgb(0,0,0)" paint-order="fill" d="M 48.227272033691406 109.59091186523438 L 252.7727279663086 109.59091186523438 L 252.7727279663086 123.22727584838867 L 48.227272033691406 123.22727584838867 L 48.227272033691406 109.59091186523438" fill-opacity="1" clip-path="url(#pQeusThMIBlu)" stroke-opacity="1" stroke-linejoin="bevel" stroke-miterlimit="10" stroke-dasharray=""/><path fill="rgb(0,0,0)" stroke="rgb(0,0,0)" paint-order="fill" d="M 48.227272033691406 177.77272033691406 L 252.7727279663086 177.77272033691406 L 252.7727279663086 191.40908432006836 L 48.227272033691406 191.40908432006836 L 48.227272033691406 177.77272033691406" fill-opacity="1" clip-path="url(#pQeusThMIBlu)" stroke-opacity="1" stroke-linejoin="bevel" stroke-miterlimit="10" stroke-dasharray=""/><g clip-path="url(#MQrTTJdOHAOR)"><text fill="rgb(178,17,17)" stroke="none" font-family="helvetica" font-size="50pt" font-style="normal" font-weight="normal" text-decoration="normal" x="54.545454545454554" y="101.9090909090909" text-anchor="start" dominant-baseline="alphabetic" transform="matrix(1, 0, 0, 1, 0.5, 0.5)" fill-opacity="1">X</text></g><g clip-path="url(#BuCLMaVhkCeT)"><text fill="rgb(178,17,17)" stroke="none" font-family="helvetica" font-size="50pt" font-style="normal" font-weight="normal" text-decoration="normal" x="122.72727272727273" y="101.9090909090909" text-anchor="start" dominant-baseline="alphabetic" transform="matrix(1, 0, 0, 1, 0.5, 0.5)" fill-opacity="1">X</text></g><g clip-path="url(#ZIpEuTKtErQf)"><text fill="rgb(17,90,178)" stroke="none" font-family="helvetica" font-size="50pt" font-style="normal" font-weight="normal" text-decoration="normal" x="190.90909090909088" y="101.9090909090909" text-anchor="start" dominant-baseline="alphabetic" transform="matrix(1, 0, 0, 1, 0.5, 0.5)" fill-opacity="1">O</text></g><g clip-path="url(#gSxuDsAmJePT)"><text fill="rgb(178,17,17)" stroke="none" font-family="helvetica" font-size="50pt" font-style="normal" font-weight="normal" text-decoration="normal" x="54.545454545454554" y="173.5" text-anchor="start" dominant-baseline="alphabetic" transform="matrix(1, 0, 0, 1, 0.5, 0.5)" fill-opacity="1">X</text></g><g clip-path="url(#ZIialBloLGrA)"><text fill="rgb(178,17,17)" stroke="none" font-family="helvetica" font-size="50pt" font-style="normal" font-weight="normal" text-decoration="normal" x="122.72727272727273" y="173.5" text-anchor="start" dominant-baseline="alphabetic" transform="matrix(1, 0, 0, 1, 0.5, 0.5)" fill-opacity="1">X</text></g><g clip-path="url(#RcGBnWSraoaG)"><text fill="rgb(17,90,178)" stroke="none" font-family="helvetica" font-size="50pt" font-style="normal" font-weight="normal" text-decoration="normal" x="190.90909090909088" y="173.5" text-anchor="start" dominant-baseline="alphabetic" transform="matrix(1, 0, 0, 1, 0.5, 0.5)" fill-opacity="1">O</text></g></svg>